Coordinates
version=1
nRows=11
nColumns=40
inDegrees=yes

Units are S.I. units (second, meters, Newtons, ...)
If the header above contains a line with 'inDegrees', this indicates whether rotational values are in degrees (yes) or radians (no).

endheader
time	pelvis_tilt	pelvis_list	pelvis_rotation	pelvis_tx	pelvis_ty	pelvis_tz	hip_flexion_r	hip_adduction_r	hip_rotation_r	knee_angle_r	knee_angle_r_beta	ankle_angle_r	subtalar_angle_r	mtp_angle_r	hip_flexion_l	hip_adduction_l	hip_rotation_l	knee_angle_l	knee_angle_l_beta	ankle_angle_l	subtalar_angle_l	mtp_angle_l	lumbar_extension	lumbar_bending	lumbar_rotation	arm_flex_r	arm_add_r	arm_rot_r	elbow_flex_r	pro_sup_r	wrist_flex_r	wrist_dev_r	arm_flex_l	arm_add_l	arm_rot_l	elbow_flex_l	pro_sup_l	wrist_flex_l	wrist_dev_l
      4.78500000	    -38.31800080	     -4.97800326	      7.13659393	      0.08056492	      0.44287485	     -1.15612978	    125.46857504	    -48.84274755	     21.21574998	    108.33940061	      1.89087925	     23.30648277	      3.44063157	      0.00000000	    131.66765833	    -38.06377242	     15.44800631	    102.68801992	      1.79224405	     13.96379983	     14.41224824	      0.00000000	      0.00000000	      0.00000000	      0.00000000	     44.99064499	    -15.00015232	     44.99064499	     75.00017606	     45.00000026	      0.00000000	      0.00000000	     44.99064499	    -15.00015232	     44.99064499	     75.00017606	     45.00000026	      0.00000000	      0.00000000
      4.79000000	    -38.11763178	     -5.24793735	      7.03154325	      0.08101152	      0.44209251	     -1.15629762	    124.96678793	    -48.90384309	     20.84004496	    108.47960003	      1.89332619	     23.53341761	      3.46006034	      0.00000000	    131.98341038	    -37.98006161	     16.01505229	    102.88993486	      1.79576813	     14.01387629	     14.42767512	      0.00000000	      0.00000000	      0.00000000	      0.00000000	     44.99105346	    -15.00014199	     44.99105346	     75.00017603	     45.00000026	      0.00000000	      0.00000000	     44.99105346	    -15.00014199	     44.99105346	     75.00017603	     45.00000026	      0.00000000	      0.00000000
      4.79500000	    -38.07845491	     -5.06222441	      7.17249633	      0.08113219	      0.44064548	     -1.15645623	    125.55767923	    -48.88924726	     21.57792702	    108.70633595	      1.89728348	     23.42261519	      3.54983454	      0.00000000	    131.91803039	    -37.94469848	     15.87299888	    103.09548123	      1.79935559	     14.14171403	     14.43848087	      0.00000000	      0.00000000	      0.00000000	      0.00000000	     44.99138587	    -15.00013374	     44.99138587	     75.00017601	     45.00000026	      0.00000000	      0.00000000	     44.99138587	    -15.00013374	     44.99138587	     75.00017601	     45.00000026	      0.00000000	      0.00000000
      4.80000000	    -38.05262260	     -5.06169774	      7.17876833	      0.08129937	      0.43942473	     -1.15652374	    125.74901778	    -48.86229554	     21.80647416	    108.87721470	      1.90026588	     23.47637100	      3.49950472	      0.00000000	    132.08638506	    -37.90827126	     16.02872595	    103.27416187	      1.80247416	     14.20849133	     14.40933588	      0.00000000	      0.00000000	      0.00000000	      0.00000000	     44.99172578	    -15.00012549	     44.99172578	     75.00017600	     45.00000026	      0.00000000	      0.00000000	     44.99172578	    -15.00012549	     44.99172578	     75.00017600	     45.00000026	      0.00000000	      0.00000000
      4.80500000	    -38.00247088	     -5.10241820	      7.17453465	      0.08153165	      0.43823480	     -1.15663927	    125.87271112	    -48.85918533	     21.97637443	    109.05768286	      1.90341564	     23.47983435	      3.48210455	      0.00000000	    132.28416403	    -37.86634910	     16.24751943	    103.46839927	      1.80586424	     14.24567828	     14.40920808	      0.00000000	      0.00000000	      0.00000000	      0.00000000	     44.99199895	    -15.00011901	     44.99199895	     75.00017598	     45.00000026	      0.00000000	      0.00000000	     44.99199895	    -15.00011901	     44.99199895	     75.00017598	     45.00000026	      0.00000000	      0.00000000
      4.81000000	    -37.80359269	     -5.33030343	      7.04313539	      0.08186490	      0.43766086	     -1.15666847	    125.35823396	    -48.88045698	     21.58058393	    109.16442539	      1.90527865	     23.72608563	      3.56425652	      0.00000000	    132.55178490	    -37.85104213	     16.76503086	    103.62330657	      1.80856788	     14.32276608	     14.50374741	      0.00000000	      0.00000000	      0.00000000	      0.00000000	     44.99218577	    -15.00011471	     44.99218577	     75.00017597	     45.00000026	      0.00000000	      0.00000000	     44.99218577	    -15.00011471	     44.99218577	     75.00017597	     45.00000026	      0.00000000	      0.00000000
      4.81500000	    -37.83626471	     -5.16469040	      7.19774438	      0.08189568	      0.43626672	     -1.15687330	    126.00095152	    -48.90659561	     22.28359339	    109.35218952	      1.90855575	     23.64392601	      3.61607997	      0.00000000	    132.53241752	    -37.79424784	     16.58104585	    103.78939292	      1.81146664	     14.41490162	     14.49795850	      0.00000000	      0.00000000	      0.00000000	      0.00000000	     44.99271899	    -15.00010264	     44.99271899	     75.00017595	     45.00000026	      0.00000000	      0.00000000	     44.99271899	    -15.00010264	     44.99271899	     75.00017595	     45.00000026	      0.00000000	      0.00000000
      4.82000000	    -37.82726508	     -5.14597637	      7.21255674	      0.08199721	      0.43515676	     -1.15695330	    126.23741414	    -48.88860188	     22.54262696	    109.50312934	      1.91119015	     23.66338821	      3.64588755	      0.00000000	    132.68418516	    -37.78567561	     16.67535984	    103.94591215	      1.81419841	     14.45469013	     14.48764339	      0.00000000	      0.00000000	      0.00000000	      0.00000000	     44.99325366	    -15.00009102	     44.99325366	     75.00017593	     45.00000026	      0.00000000	      0.00000000	     44.99325366	    -15.00009102	     44.99325366	     75.00017593	     45.00000026	      0.00000000	      0.00000000
      4.82500000	    -37.82032225	     -5.14637276	      7.21945051	      0.08208848	      0.43411063	     -1.15703961	    126.44118281	    -48.88315281	     22.74970220	    109.64036718	      1.91358540	     23.66920489	      3.66075193	      0.00000000	    132.84801353	    -37.77495830	     16.78863917	    104.09145316	      1.81673858	     14.49449370	     14.50437361	      0.00000000	      0.00000000	      0.00000000	      0.00000000	     44.99374017	    -15.00008088	     44.99374017	     75.00017592	     45.00000026	      0.00000000	      0.00000000	     44.99374017	    -15.00008088	     44.99374017	     75.00017592	     45.00000026	      0.00000000	      0.00000000
      4.83000000	    -37.81757078	     -5.16220079	      7.21982107	      0.08217109	      0.43309340	     -1.15711556	    126.62131853	    -48.89203501	     22.91911900	    109.77300315	      1.91590033	     23.68532170	      3.69963611	      0.00000000	    133.03293515	    -37.76498983	     16.91490644	    104.23032562	      1.81916236	     14.51955327	     14.53047393	      0.00000000	      0.00000000	      0.00000000	      0.00000000	     44.99423265	    -15.00007106	     44.99423265	     75.00017590	     45.00000026	      0.00000000	      0.00000000	     44.99423265	    -15.00007106	     44.99423265	     75.00017590	     45.00000026	      0.00000000	      0.00000000
      4.83500000	    -37.86273404	     -5.16985797	      7.19652427	      0.08219343	      0.43205925	     -1.15716552	    126.84314286	    -48.86008914	     23.06863339	    109.88676814	      1.91788591	     23.66231313	      3.65777296	      0.00000000	    133.25830134	    -37.77494454	     17.03781227	    104.35445444	      1.82132882	     14.53154180	     14.54458811	      0.00000000	      0.00000000	      0.00000000	      0.00000000	     44.99461717	    -15.00006377	     44.99461717	     75.00017589	     45.00000026	      0.00000000	      0.00000000	     44.99461717	    -15.00006377	     44.99461717	     75.00017589	     45.00000026	      0.00000000	      0.00000000
